<?xml version="1.0" standalone="no"?><!DOCTYPE svg PUBLIC "-//W3C//DTD SVG 1.1//EN" "http://www.w3.org/Graphics/SVG/1.1/DTD/svg11.dtd"><svg t="1647242727311" class="icon" viewBox="0 0 1024 1024" version="1.1" xmlns="http://www.w3.org/2000/svg" p-id="2233" xmlns:xlink="http://www.w3.org/1999/xlink" width="32" height="32"><defs><style type="text/css"></style></defs><path d="M512 871.253333c-98.679467 0-183.995733-35.259733-253.559467-104.840533S153.6 611.5328 153.6 512.853333s35.2768-183.995733 104.840533-253.559466S413.320533 154.453333 512 154.453333s183.995733 35.2768 253.559467 104.840534S870.4 414.173867 870.4 512.853333s-35.259733 183.978667-104.840533 253.559467C695.978667 835.976533 610.679467 871.253333 512 871.253333z m0-682.666666c-89.2928 0-166.485333 31.914667-229.4272 94.839466S187.733333 423.543467 187.733333 512.853333s31.914667 166.485333 94.839467 229.4272c62.941867 62.941867 140.117333 94.839467 229.4272 94.839467s166.485333-31.8976 229.4272-94.839467C804.369067 679.338667 836.266667 602.146133 836.266667 512.853333s-31.8976-166.485333-94.839467-229.4272C678.485333 220.484267 601.2928 188.586667 512 188.586667z" p-id="2234" fill="#e6e6e6"></path><path d="M546.133333 914.773333h-68.266666v-60.586666h68.266666v60.586666z m360.106667-367.786666H853.333333v-68.266667h52.906667v68.266667z m-735.573333 0H122.026667v-68.266667H170.666667v68.266667z m375.466666-375.466667h-68.266666V119.466667h68.266666v52.053333z" p-id="2235" fill="#e6e6e6"></path><path d="M512 972.8a34.133333 34.133333 0 0 1-34.133333-34.133333v-23.893334a34.133333 34.133333 0 0 1 68.266666 0V938.666667a34.133333 34.133333 0 0 1-34.133333 34.133333z m426.666667-425.813333h-32.426667a34.133333 34.133333 0 0 1 0-68.266667H938.666667a34.133333 34.133333 0 0 1 0 68.266667z m-816.64 0H85.333333a34.133333 34.133333 0 0 1 0-68.266667h36.693334a34.133333 34.133333 0 0 1 0 68.266667zM512 153.6a34.133333 34.133333 0 0 1-34.133333-34.133333V85.333333a34.133333 34.133333 0 0 1 68.266666 0v34.133334a34.133333 34.133333 0 0 1-34.133333 34.133333zM512 692.906667c-50.0224 0-93.1328-17.7664-128.119467-52.7872-35.037867-35.0208-52.7872-77.841067-52.7872-127.266134 0-49.988267 17.7664-93.098667 52.7872-128.119466 34.986667-35.0208 78.097067-52.7872 128.119467-52.7872 49.425067 0 92.245333 17.7664 127.266133 52.7872 35.037867 35.037867 52.7872 78.148267 52.7872 128.119466 0 49.425067-17.7664 92.245333-52.7872 127.266134S561.425067 692.906667 512 692.906667z m0-326.826667c-41.198933 0-75.2128 13.994667-103.970133 42.786133-28.808533 28.808533-42.8032 62.805333-42.8032 103.9872 0 40.618667 13.994667 74.3424 42.786133 103.133867C436.7872 644.7616 470.801067 658.773333 512 658.773333c40.6016 0 74.3424-13.994667 103.133867-42.786133s42.786133-62.532267 42.786133-103.133867c0-41.1648-13.994667-75.178667-42.786133-103.9872C586.3424 380.074667 552.6016 366.08 512 366.08z" p-id="2236" fill="#e6e6e6"></path></svg>