<?xml version="1.0" standalone="no"?><!DOCTYPE svg PUBLIC "-//W3C//DTD SVG 1.1//EN" "http://www.w3.org/Graphics/SVG/1.1/DTD/svg11.dtd"><svg t="1646882535848" class="icon" viewBox="0 0 1024 1024" version="1.1" xmlns="http://www.w3.org/2000/svg" p-id="2284" width="32" height="32" xmlns:xlink="http://www.w3.org/1999/xlink"><defs><style type="text/css"></style></defs><path d="M421.49 421.49c-49.987 49.987-49.987 131.033 0 181.02 49.987 49.987 131.033 49.987 181.02 0 49.987-49.987 49.987-131.033 0-181.02-49.987-49.987-131.033-49.987-181.02 0z m50.912 50.912c21.87-21.87 57.327-21.87 79.196 0 21.87 21.87 21.87 57.327 0 79.196-21.87 21.87-57.327 21.87-79.196 0-21.87-21.87-21.87-57.327 0-79.196z" fill="#1C6EFF" p-id="2285"></path><path d="M668.27 320.374l135.058-135.057 39.598 39.598-135.057 135.057zM193.095 795.55l135.057-135.058 39.598 39.598-135.057 135.058z" fill="#44D7B6" p-id="2286"></path><path d="M725.732 56.437c2.631-2.63 7.297-2.23 10.42 0.893L966.67 287.847c3.124 3.124 3.524 7.79 0.893 10.42l-194.12 194.12c-2.63 2.631-7.296 2.231-10.42-0.893L532.506 260.977c-3.124-3.124-3.524-7.79-0.893-10.42l194.12-194.12z m-0.893 91.403L623.016 249.663l151.32 151.321L876.16 299.161 724.84 147.84zM250.557 531.613c2.63-2.631 7.296-2.231 10.42 0.893l230.517 230.517c3.124 3.124 3.524 7.79 0.893 10.42l-194.12 194.12c-2.63 2.63-7.296 2.23-10.42-0.893L57.33 736.153c-3.124-3.124-3.524-7.79-0.893-10.42l194.12-194.12z m-0.894 91.403L147.84 724.839 299.16 876.16l101.824-101.823-151.32-151.321z" fill="#1C6EFF" p-id="2287"></path></svg>